<?xml version="1.0" encoding="UTF-8"?>
<svg width="30px" height="30px" viewBox="0 0 30 30" version="1.1" xmlns="http://www.w3.org/2000/svg" xmlns:xlink="http://www.w3.org/1999/xlink">
    <!-- Generator: Sketch 50.2 (55047) - http://www.bohemiancoding.com/sketch -->
    <title>Combined Shape</title>
    <desc>Created with Sketch.</desc>
    <defs></defs>
    <g id="Page-1" stroke="none" stroke-width="1" fill="none" fill-rule="evenodd">
        <g id="web" transform="translate(-415.000000, -1751.000000)" fill="#FFFFFF" fill-rule="nonzero">
            <g id="features" transform="translate(365.000000, 1018.000000)">
                <g id="inventory" transform="translate(0.000000, 663.000000)">
                    <path d="M78.4645916,81.850846 L76.3588887,81.4936286 C76.1395446,80.7854606 75.8575308,80.1023606 75.5128473,79.4505954 L76.753708,77.7146438 C77.2801337,76.975141 77.198663,75.9661583 76.5531648,75.3269271 L74.6856069,73.4593691 C74.3346564,73.1084186 73.8709004,72.9141425 73.3758095,72.9141425 C72.9872572,72.9141425 72.6175057,73.033215 72.3041571,73.258826 L70.5619386,74.4996867 C69.8851055,74.1424692 69.1769375,73.8479215 68.4437017,73.6285774 L68.0927512,71.5479423 C67.9423438,70.6517652 67.1715062,70 66.2627951,70 L63.6243994,70 C62.7156883,70 61.9448506,70.6517652 61.7944433,71.5479423 L61.4309588,73.6787132 C60.7290579,73.8980572 60.0459578,74.186338 59.3941926,74.5372885 L57.670775,73.2964278 C57.3574264,73.0708168 56.981408,72.9517443 56.5928557,72.9517443 C56.0977648,72.9517443 55.6277418,73.1460205 55.2830583,73.496971 L53.4092333,75.3645289 C52.7700021,76.0037602 52.6822645,77.0127428 53.2086902,77.7522457 L54.4620848,79.5132651 C54.1174013,80.1712973 53.8416545,80.8543973 53.6285774,81.5625653 L51.5479423,81.9135158 C50.6517652,82.0639231 50,82.8347608 50,83.7434719 L50,86.3818676 C50,87.2905787 50.6517652,88.0614163 51.5479423,88.2118237 L53.6787132,88.5753081 C53.8980572,89.2772091 54.186338,89.9603092 54.5372885,90.6120744 L53.3026948,92.329225 C52.7762691,93.0687278 52.8577397,94.0777105 53.5032379,94.7169417 L55.3707959,96.5844997 C55.7217464,96.9354502 56.1855024,97.1297263 56.6805933,97.1297263 C57.0691456,97.1297263 57.438897,97.0106539 57.7522457,96.7850428 L59.5132651,95.5316482 C60.1462294,95.8637978 60.8105285,96.1332776 61.4936286,96.3463547 L61.8445791,98.4520577 C61.9949864,99.3482348 62.7658241,100 63.6745352,100 L66.3191978,100 C67.2279089,100 67.9987466,99.3482348 68.149154,98.4520577 L68.5063714,96.3463547 C69.2145394,96.1270107 69.8976394,95.8449969 70.5494046,95.5003133 L72.2853562,96.741174 C72.5987048,96.966785 72.9747232,97.0858575 73.3632755,97.0858575 C73.8583664,97.0858575 74.3221224,96.8915814 74.6730729,96.5406309 L76.5406309,94.6730729 C77.1798621,94.0338417 77.2675997,93.024859 76.741174,92.2853562 L75.5003133,90.5431377 C75.8449969,89.8851055 76.1332776,89.2020054 76.3463547,88.5001044 L78.4520577,88.149154 C79.3482348,87.9987466 80,87.2279089 80,86.3191978 L80,83.6808022 C80.0125339,82.7720911 79.3607687,82.0012534 78.4645916,81.850846 Z M78.3204512,86.3191978 C78.3204512,86.4006685 78.2640485,86.4696052 78.1825778,86.4821391 L75.5504491,86.9208272 C75.2182996,86.97723 74.9550867,87.2216419 74.873616,87.5412576 C74.6354711,88.4625026 74.2719866,89.3461458 73.7831627,90.1671193 C73.6139545,90.4554 73.6264884,90.8126175 73.8207646,91.0883643 L75.3687069,93.2692709 C75.4125757,93.3319407 75.4063088,93.4259453 75.349906,93.482348 L73.482348,95.349906 C73.4384792,95.3937748 73.3946104,95.4000418 73.3632755,95.4000418 C73.3256737,95.4000418 73.2943388,95.3875078 73.2692709,95.3687069 L71.0946313,93.8207646 C70.8251515,93.6264884 70.461667,93.6139545 70.1733863,93.7831627 C69.3524128,94.2719866 68.4687696,94.6354711 67.5475245,94.873616 C67.2216419,94.9550867 66.97723,95.2245665 66.9270942,95.5504491 L66.4821391,98.1825778 C66.4696052,98.2640485 66.4006685,98.3204512 66.3191978,98.3204512 L63.6808022,98.3204512 C63.5993315,98.3204512 63.5303948,98.2640485 63.5178609,98.1825778 L63.0791728,95.5504491 C63.02277,95.2182996 62.7783581,94.9550867 62.4587424,94.873616 C61.5625653,94.641738 60.697723,94.2845206 59.8892835,93.8207646 C59.757677,93.7455609 59.6072697,93.7079591 59.4631293,93.7079591 C59.293921,93.7079591 59.1184458,93.7580948 58.9743054,93.8646334 L56.7808648,95.4251097 C56.74953,95.4439106 56.7181951,95.4564445 56.6868602,95.4564445 C56.6617924,95.4564445 56.6116566,95.4501776 56.5677878,95.4063088 L54.7002298,93.5387508 C54.643827,93.482348 54.6375601,93.3946104 54.6814289,93.3256737 L56.2231042,91.163568 C56.4173804,90.8878212 56.4299144,90.5243367 56.2607061,90.236056 C55.7718822,89.4213495 55.3958638,88.5377063 55.1577188,87.6164612 C55.0699812,87.2968456 54.8067683,87.0524337 54.4808857,86.9960309 L51.8299561,86.5448089 C51.7484855,86.5322749 51.6920827,86.4633382 51.6920827,86.3818676 L51.6920827,83.7434719 C51.6920827,83.6620013 51.7484855,83.5930645 51.8299561,83.5805306 L54.4432839,83.1418425 C54.7754335,83.0854397 55.0449133,82.8410278 55.126384,82.5151452 C55.358262,81.5939001 55.7154794,80.70399 56.1980363,79.8830165 C56.3672446,79.5947357 56.3484437,79.2375183 56.1541675,78.9680384 L54.5936912,76.7745979 C54.5498224,76.7119281 54.5560894,76.6179235 54.6124922,76.5615208 L56.4800501,74.6939628 C56.5239189,74.650094 56.5677878,74.643827 56.5991226,74.643827 C56.6367245,74.643827 56.6680593,74.656361 56.6931272,74.6751619 L58.8552329,76.2168373 C59.1309797,76.4111134 59.4944642,76.4236474 59.7827449,76.2544391 C60.5974514,75.7656152 61.4810946,75.3895968 62.4023397,75.1514518 C62.7219553,75.0637142 62.9663672,74.8005014 63.02277,74.4746188 L63.4739921,71.8236892 C63.486526,71.7422185 63.5554627,71.6858158 63.6369334,71.6858158 L66.275329,71.6858158 C66.3567997,71.6858158 66.4257364,71.7422185 66.4382703,71.8236892 L66.8769584,74.4370169 C66.9333612,74.7691665 67.1777731,75.0386463 67.5036557,75.120117 C68.4499687,75.358262 69.3524128,75.7280134 70.1921872,76.2231042 C70.4804679,76.3923125 70.8376854,76.3797786 71.1134322,76.1855024 L73.2755379,74.6312931 C73.3068728,74.6124922 73.3382076,74.5999582 73.3695425,74.5999582 C73.3946104,74.5999582 73.4447462,74.6062252 73.488615,74.650094 L75.356173,76.517652 C75.4125757,76.5740547 75.4188427,76.6617924 75.3749739,76.7307291 L73.8270315,78.9053687 C73.6327554,79.1748485 73.6202214,79.538333 73.7894297,79.8266137 C74.2782536,80.6475872 74.641738,81.5312304 74.879883,82.4524755 C74.9613537,82.7783581 75.2308335,83.02277 75.5567161,83.0729058 L78.1888448,83.5178609 C78.2703154,83.5303948 78.3267182,83.5993315 78.3267182,83.6808022 L78.3267182,86.3191978 L78.3204512,86.3191978 Z M65.0031335,78.5230834 C61.4309588,78.5230834 58.5293503,81.4246919 58.5293503,84.9968665 C58.5293503,88.5690412 61.4309588,91.4706497 65.0031335,91.4706497 C68.5753081,91.4706497 71.4769166,88.5690412 71.4769166,84.9968665 C71.4769166,81.4246919 68.5753081,78.5230834 65.0031335,78.5230834 Z M65.0031335,89.778567 C62.3647378,89.778567 60.221433,87.6352622 60.221433,84.9968665 C60.221433,82.3584709 62.3647378,80.2151661 65.0031335,80.2151661 C67.6415291,80.2151661 69.7848339,82.3584709 69.7848339,84.9968665 C69.7848339,87.6352622 67.6415291,89.778567 65.0031335,89.778567 Z" id="Combined-Shape"></path>
                </g>
            </g>
        </g>
    </g>
</svg>