<?xml version="1.0" encoding="utf-8"?>
<!-- Generator: Adobe Illustrator 22.1.0, SVG Export Plug-In . SVG Version: 6.00 Build 0)  -->
<svg version="1.1" id="Capa_1" xmlns="http://www.w3.org/2000/svg" xmlns:xlink="http://www.w3.org/1999/xlink" x="0px" y="0px"
	 viewBox="0 0 512 512" style="enable-background:new 0 0 512 512;" xml:space="preserve">
<g>
	<g>
		<path d="M475,246h-74V10c0-4-2.4-7.7-6.2-9.2c-3.7-1.5-8-0.7-10.9,2.2l-28.3,28.3L327.3,2.9C323.4-1,317-1,313.1,2.9l-28.3,28.3
			L256.5,2.9c-3.9-3.9-10.2-3.9-14.1,0L214,31.3L185.7,2.9c-3.9-3.9-10.2-3.9-14.1,0l-28.3,28.3L114.9,2.9C111-1,104.6-1,100.7,2.9
			L72.4,31.3L44.1,2.9C40.2-1,33.9-1,30,2.9c-2.1,2-3.1,4.7-3,7.4V460c0,28.7,23.3,52,52,52h354c0,0,0,0,0,0c0,0,0,0,0,0
			c28.7,0,52-23.3,52-52V256C485,250.5,480.5,246,475,246z M79,492c-17.6,0-32-14.4-32-32V34.2l18.3,18.3c3.9,3.9,10.2,3.9,14.1,0
			l28.3-28.3l28.3,28.3c3.9,3.9,10.2,3.9,14.1,0l28.3-28.3l28.3,28.3c3.9,3.9,10.2,3.9,14.1,0l28.3-28.3l28.3,28.3
			c3.9,3.9,10.2,3.9,14.1,0l28.3-28.3l28.3,28.3c3.9,3.9,10.2,3.9,14.1,0L381,34.1V256c0,0.1,0,0.2,0,0.3V460
			c0,12.1,4.1,23.2,11.1,32L79,492L79,492z M465,460c0,17.6-14.4,32-32,32s-32-14.4-32-32V266h64L465,460L465,460z"/>
	</g>
</g>
<g>
	<g>
		<path d="M314.5,158.9H295c-5.5,0-10,4.5-10,10s4.5,10,10,10h19.5c5.5,0,10-4.5,10-10S320,158.9,314.5,158.9z"/>
	</g>
</g>
<g>
	<g>
		<path d="M133,158.9h-19.5c-5.5,0-10,4.5-10,10s4.5,10,10,10H133c5.5,0,10-4.5,10-10S138.5,158.9,133,158.9z"/>
	</g>
</g>
<g>
	<g>
		<path d="M319.5,270H161.1c-5.5,0-10,4.5-10,10s4.5,10,10,10h158.4c5.5,0,10-4.5,10-10C329.5,274.5,325,270,319.5,270z"/>
	</g>
</g>
<g>
	<g>
		<path d="M115.5,272.9c-1.9-1.9-4.4-2.9-7.1-2.9s-5.2,1.1-7.1,2.9s-2.9,4.4-2.9,7.1s1.1,5.2,2.9,7.1c1.9,1.9,4.4,2.9,7.1,2.9
			s5.2-1.1,7.1-2.9s2.9-4.4,2.9-7.1S117.4,274.8,115.5,272.9z"/>
	</g>
</g>
<g>
	<g>
		<path d="M319.5,336H161.1c-5.5,0-10,4.5-10,10s4.5,10,10,10h158.4c5.5,0,10-4.5,10-10C329.5,340.5,325,336,319.5,336z"/>
	</g>
</g>
<g>
	<g>
		<path d="M115.5,338.9c-1.9-1.9-4.4-2.9-7.1-2.9s-5.2,1.1-7.1,2.9s-2.9,4.4-2.9,7.1s1.1,5.2,2.9,7.1c1.9,1.9,4.4,2.9,7.1,2.9
			s5.2-1.1,7.1-2.9s2.9-4.4,2.9-7.1S117.4,340.8,115.5,338.9z"/>
	</g>
</g>
<g>
	<g>
		<path d="M319.5,402H161.1c-5.5,0-10,4.5-10,10s4.5,10,10,10h158.4c5.5,0,10-4.5,10-10S325,402,319.5,402z"/>
	</g>
</g>
<g>
	<g>
		<path d="M115.5,404.9c-1.9-1.9-4.4-2.9-7.1-2.9s-5.2,1.1-7.1,2.9s-2.9,4.4-2.9,7.1s1.1,5.2,2.9,7.1c1.9,1.9,4.4,2.9,7.1,2.9
			s5.2-1.1,7.1-2.9s2.9-4.4,2.9-7.1S117.4,406.8,115.5,404.9z"/>
	</g>
</g>
<g>
	<path d="M260,121.2h-33c5.8,4.6,10,11.2,11.2,20.4H260v10h-21.6c-2,20.4-18.2,33.4-43.8,34.2c15.6,16.2,32.6,36.6,49.4,57.2h-19.2
		c-15.6-18.8-30.2-36.2-49-56.2v-12.4h11c21.6,0,33.2-9,34.6-22.8h-45.6v-10h45c-2.8-11.6-13.4-17.4-30.8-17.4h-14.2v-13H260V121.2z
		"/>
</g>
</svg>
