<svg xmlns="http://www.w3.org/2000/svg" height="937pt" version="1.1" viewBox="-78 0 937 937.5" width="937pt">
<g id="surface1">
<path d="M 594 465.0625 C 593.953125 485.621094 589.140625 505.882812 579.9375 524.265625 C 568.640625 547 562.753906 572.046875 562.75 597.4375 L 562.75 859.375 C 562.75 885.257812 541.757812 906.25 515.875 906.25 L 109.625 906.25 C 83.742188 906.25 62.75 885.257812 62.75 859.375 L 62.75 597.4375 C 62.746094 572.046875 56.859375 547 45.5625 524.265625 C 36.359375 505.882812 31.546875 485.621094 31.5 465.0625 L 31.5 140.625 C 31.5 114.742188 52.492188 93.75 78.375 93.75 L 94 93.75 L 94 62.5 L 78.375 62.5 C 35.25 62.554688 0.304688 97.5 0.25 140.625 L 0.25 465.0625 C 0.28125 490.453125 6.183594 515.503906 17.515625 538.234375 C 26.691406 556.632812 31.476562 576.894531 31.5 597.4375 L 31.5 859.375 C 31.554688 902.5 66.5 937.445312 109.625 937.5 L 515.875 937.5 C 559 937.445312 593.945312 902.5 594 859.375 L 594 597.4375 C 594.046875 576.878906 598.859375 556.617188 608.0625 538.234375 C 619.359375 515.5 625.246094 490.453125 625.25 465.0625 L 625.25 437.5 L 594 437.5 Z M 594 465.0625 " style=" stroke:none;fill-rule:nonzero;fill:rgb(0%,0%,0%);fill-opacity:1;" />
<path d="M 328.375 515.625 L 297.125 515.625 C 271.242188 515.625 250.25 536.617188 250.25 562.5 C 250.25 588.382812 271.242188 609.375 297.125 609.375 L 328.375 609.375 C 354.257812 609.375 375.25 588.382812 375.25 562.5 C 375.25 536.617188 354.257812 515.625 328.375 515.625 Z M 328.375 578.125 L 297.125 578.125 C 288.492188 578.125 281.5 571.132812 281.5 562.5 C 281.5 553.867188 288.492188 546.875 297.125 546.875 L 328.375 546.875 C 337.007812 546.875 344 553.867188 344 562.5 C 344 571.132812 337.007812 578.125 328.375 578.125 Z M 328.375 578.125 " style=" stroke:none;fill-rule:nonzero;fill:rgb(0%,0%,0%);fill-opacity:1;" />
<path d="M 484.625 515.625 L 453.375 515.625 C 427.492188 515.625 406.5 536.617188 406.5 562.5 C 406.5 588.382812 427.492188 609.375 453.375 609.375 L 484.625 609.375 C 510.507812 609.375 531.5 588.382812 531.5 562.5 C 531.5 536.617188 510.507812 515.625 484.625 515.625 Z M 484.625 578.125 L 453.375 578.125 C 444.742188 578.125 437.75 571.132812 437.75 562.5 C 437.75 553.867188 444.742188 546.875 453.375 546.875 L 484.625 546.875 C 493.257812 546.875 500.25 553.867188 500.25 562.5 C 500.25 571.132812 493.257812 578.125 484.625 578.125 Z M 484.625 578.125 " style=" stroke:none;fill-rule:nonzero;fill:rgb(0%,0%,0%);fill-opacity:1;" />
<path d="M 172.125 515.625 L 140.875 515.625 C 114.992188 515.625 94 536.617188 94 562.5 C 94 588.382812 114.992188 609.375 140.875 609.375 L 172.125 609.375 C 198.007812 609.375 219 588.382812 219 562.5 C 219 536.617188 198.007812 515.625 172.125 515.625 Z M 172.125 578.125 L 140.875 578.125 C 132.242188 578.125 125.25 571.132812 125.25 562.5 C 125.25 553.867188 132.242188 546.875 140.875 546.875 L 172.125 546.875 C 180.757812 546.875 187.75 553.867188 187.75 562.5 C 187.75 571.132812 180.757812 578.125 172.125 578.125 Z M 172.125 578.125 " style=" stroke:none;fill-rule:nonzero;fill:rgb(0%,0%,0%);fill-opacity:1;" />
<path d="M 328.375 640.625 L 297.125 640.625 C 271.242188 640.625 250.25 661.617188 250.25 687.5 C 250.25 713.382812 271.242188 734.375 297.125 734.375 L 328.375 734.375 C 354.257812 734.375 375.25 713.382812 375.25 687.5 C 375.25 661.617188 354.257812 640.625 328.375 640.625 Z M 328.375 703.125 L 297.125 703.125 C 288.492188 703.125 281.5 696.132812 281.5 687.5 C 281.5 678.867188 288.492188 671.875 297.125 671.875 L 328.375 671.875 C 337.007812 671.875 344 678.867188 344 687.5 C 344 696.132812 337.007812 703.125 328.375 703.125 Z M 328.375 703.125 " style=" stroke:none;fill-rule:nonzero;fill:rgb(0%,0%,0%);fill-opacity:1;" />
<path d="M 484.625 640.625 L 453.375 640.625 C 427.492188 640.625 406.5 661.617188 406.5 687.5 C 406.5 713.382812 427.492188 734.375 453.375 734.375 L 484.625 734.375 C 510.507812 734.375 531.5 713.382812 531.5 687.5 C 531.5 661.617188 510.507812 640.625 484.625 640.625 Z M 484.625 703.125 L 453.375 703.125 C 444.742188 703.125 437.75 696.132812 437.75 687.5 C 437.75 678.867188 444.742188 671.875 453.375 671.875 L 484.625 671.875 C 493.257812 671.875 500.25 678.867188 500.25 687.5 C 500.25 696.132812 493.257812 703.125 484.625 703.125 Z M 484.625 703.125 " style=" stroke:none;fill-rule:nonzero;fill:rgb(0%,0%,0%);fill-opacity:1;" />
<path d="M 172.125 640.625 L 140.875 640.625 C 114.992188 640.625 94 661.617188 94 687.5 C 94 713.382812 114.992188 734.375 140.875 734.375 L 172.125 734.375 C 198.007812 734.375 219 713.382812 219 687.5 C 219 661.617188 198.007812 640.625 172.125 640.625 Z M 172.125 703.125 L 140.875 703.125 C 132.242188 703.125 125.25 696.132812 125.25 687.5 C 125.25 678.867188 132.242188 671.875 140.875 671.875 L 172.125 671.875 C 180.757812 671.875 187.75 678.867188 187.75 687.5 C 187.75 696.132812 180.757812 703.125 172.125 703.125 Z M 172.125 703.125 " style=" stroke:none;fill-rule:nonzero;fill:rgb(0%,0%,0%);fill-opacity:1;" />
<path d="M 328.375 765.625 L 297.125 765.625 C 271.242188 765.625 250.25 786.617188 250.25 812.5 C 250.25 838.382812 271.242188 859.375 297.125 859.375 L 328.375 859.375 C 354.257812 859.375 375.25 838.382812 375.25 812.5 C 375.25 786.617188 354.257812 765.625 328.375 765.625 Z M 328.375 828.125 L 297.125 828.125 C 288.492188 828.125 281.5 821.132812 281.5 812.5 C 281.5 803.867188 288.492188 796.875 297.125 796.875 L 328.375 796.875 C 337.007812 796.875 344 803.867188 344 812.5 C 344 821.132812 337.007812 828.125 328.375 828.125 Z M 328.375 828.125 " style=" stroke:none;fill-rule:nonzero;fill:rgb(0%,0%,0%);fill-opacity:1;" />
<path d="M 484.625 765.625 L 453.375 765.625 C 427.492188 765.625 406.5 786.617188 406.5 812.5 C 406.5 838.382812 427.492188 859.375 453.375 859.375 L 484.625 859.375 C 510.507812 859.375 531.5 838.382812 531.5 812.5 C 531.5 786.617188 510.507812 765.625 484.625 765.625 Z M 484.625 828.125 L 453.375 828.125 C 444.742188 828.125 437.75 821.132812 437.75 812.5 C 437.75 803.867188 444.742188 796.875 453.375 796.875 L 484.625 796.875 C 493.257812 796.875 500.25 803.867188 500.25 812.5 C 500.25 821.132812 493.257812 828.125 484.625 828.125 Z M 484.625 828.125 " style=" stroke:none;fill-rule:nonzero;fill:rgb(0%,0%,0%);fill-opacity:1;" />
<path d="M 172.125 765.625 L 140.875 765.625 C 114.992188 765.625 94 786.617188 94 812.5 C 94 838.382812 114.992188 859.375 140.875 859.375 L 172.125 859.375 C 198.007812 859.375 219 838.382812 219 812.5 C 219 786.617188 198.007812 765.625 172.125 765.625 Z M 172.125 828.125 L 140.875 828.125 C 132.242188 828.125 125.25 821.132812 125.25 812.5 C 125.25 803.867188 132.242188 796.875 140.875 796.875 L 172.125 796.875 C 180.757812 796.875 187.75 803.867188 187.75 812.5 C 187.75 821.132812 180.757812 828.125 172.125 828.125 Z M 172.125 828.125 " style=" stroke:none;fill-rule:nonzero;fill:rgb(0%,0%,0%);fill-opacity:1;" />
<path d="M 101.8125 158.324219 L 86.1875 131.28125 C 71.710938 139.679688 62.78125 155.136719 62.75 171.875 L 62.75 421.875 C 62.75 447.757812 83.742188 468.75 109.625 468.75 L 515.875 468.75 C 532.625 468.71875 548.097656 459.789062 556.5 445.3125 L 529.453125 429.6875 C 526.65625 434.539062 521.480469 437.507812 515.875 437.5 L 109.625 437.5 C 100.992188 437.5 94 430.507812 94 421.875 L 94 171.875 C 94.007812 166.289062 96.988281 161.136719 101.8125 158.324219 Z M 101.8125 158.324219 " style=" stroke:none;fill-rule:nonzero;fill:rgb(0%,0%,0%);fill-opacity:1;" />
<path d="M 703.375 0 L 203.375 0 C 160.25 0.0546875 125.304688 35 125.25 78.125 L 125.25 328.125 C 125.304688 371.25 160.25 406.195312 203.375 406.25 L 703.375 406.25 C 746.5 406.195312 781.445312 371.25 781.5 328.125 L 781.5 78.125 C 781.445312 35 746.5 0.0546875 703.375 0 Z M 750.25 328.125 C 750.25 354.007812 729.257812 375 703.375 375 L 203.375 375 C 177.492188 375 156.5 354.007812 156.5 328.125 L 156.5 78.125 C 156.5 52.242188 177.492188 31.25 203.375 31.25 L 703.375 31.25 C 729.257812 31.25 750.25 52.242188 750.25 78.125 Z M 750.25 328.125 " style=" stroke:none;fill-rule:nonzero;fill:rgb(0%,0%,0%);fill-opacity:1;" />
<path d="M 281.5 78.125 C 281.5 69.492188 274.507812 62.5 265.875 62.5 L 203.375 62.5 C 194.742188 62.5 187.75 69.492188 187.75 78.125 L 187.75 140.625 C 187.75 149.257812 194.742188 156.25 203.375 156.25 L 265.875 156.25 C 274.507812 156.25 281.5 149.257812 281.5 140.625 Z M 250.25 125 L 219 125 L 219 93.75 L 250.25 93.75 Z M 250.25 125 " style=" stroke:none;fill-rule:nonzero;fill:rgb(0%,0%,0%);fill-opacity:1;" />
<path d="M 187.75 187.5 L 250.25 187.5 L 250.25 218.75 L 187.75 218.75 Z M 187.75 187.5 " style=" stroke:none;fill-rule:nonzero;fill:rgb(0%,0%,0%);fill-opacity:1;" />
<path d="M 187.75 250 L 250.25 250 L 250.25 281.25 L 187.75 281.25 Z M 187.75 250 " style=" stroke:none;fill-rule:nonzero;fill:rgb(0%,0%,0%);fill-opacity:1;" />
<path d="M 281.5 187.5 L 344 187.5 L 344 218.75 L 281.5 218.75 Z M 281.5 187.5 " style=" stroke:none;fill-rule:nonzero;fill:rgb(0%,0%,0%);fill-opacity:1;" />
<path d="M 375.25 187.5 L 437.75 187.5 L 437.75 218.75 L 375.25 218.75 Z M 375.25 187.5 " style=" stroke:none;fill-rule:nonzero;fill:rgb(0%,0%,0%);fill-opacity:1;" />
<path d="M 469 187.5 L 531.5 187.5 L 531.5 218.75 L 469 218.75 Z M 469 187.5 " style=" stroke:none;fill-rule:nonzero;fill:rgb(0%,0%,0%);fill-opacity:1;" />
<path d="M 562.75 187.5 L 625.25 187.5 L 625.25 218.75 L 562.75 218.75 Z M 562.75 187.5 " style=" stroke:none;fill-rule:nonzero;fill:rgb(0%,0%,0%);fill-opacity:1;" />
<path d="M 656.5 187.5 L 719 187.5 L 719 218.75 L 656.5 218.75 Z M 656.5 187.5 " style=" stroke:none;fill-rule:nonzero;fill:rgb(0%,0%,0%);fill-opacity:1;" />
<path d="M 672.125 78.125 L 703.375 78.125 L 703.375 109.375 L 672.125 109.375 Z M 672.125 78.125 " style=" stroke:none;fill-rule:nonzero;fill:rgb(0%,0%,0%);fill-opacity:1;" />
<path d="M 609.625 78.125 L 640.875 78.125 L 640.875 109.375 L 609.625 109.375 Z M 609.625 78.125 " style=" stroke:none;fill-rule:nonzero;fill:rgb(0%,0%,0%);fill-opacity:1;" />
<path d="M 547.125 78.125 L 578.375 78.125 L 578.375 109.375 L 547.125 109.375 Z M 547.125 78.125 " style=" stroke:none;fill-rule:nonzero;fill:rgb(0%,0%,0%);fill-opacity:1;" />
<path d="M 484.625 78.125 L 515.875 78.125 L 515.875 109.375 L 484.625 109.375 Z M 484.625 78.125 " style=" stroke:none;fill-rule:nonzero;fill:rgb(0%,0%,0%);fill-opacity:1;" />
<path d="M 672.125 250 C 660.558594 250.039062 649.421875 254.390625 640.875 262.183594 C 622.144531 245.164062 593.292969 246.089844 575.683594 264.257812 C 558.0625 282.441406 558.0625 311.308594 575.683594 329.492188 C 593.292969 347.660156 622.144531 348.585938 640.875 331.566406 C 656.390625 345.671875 679.394531 347.75 697.199219 336.660156 C 714.996094 325.5625 723.257812 303.992188 717.429688 283.84375 C 711.601562 263.703125 693.097656 249.878906 672.125 250 Z M 609.625 312.5 C 600.992188 312.5 594 305.507812 594 296.875 C 594 288.242188 600.992188 281.25 609.625 281.25 C 618.257812 281.25 625.25 288.242188 625.25 296.875 C 625.25 305.507812 618.257812 312.5 609.625 312.5 Z M 672.125 312.5 C 663.492188 312.5 656.5 305.507812 656.5 296.875 C 656.5 288.242188 663.492188 281.25 672.125 281.25 C 680.757812 281.25 687.75 288.242188 687.75 296.875 C 687.75 305.507812 680.757812 312.5 672.125 312.5 Z M 672.125 312.5 " style=" stroke:none;fill-rule:nonzero;fill:rgb(0%,0%,0%);fill-opacity:1;" />
</g>
</svg>