<?xml version="1.0" encoding="utf-8"?>
<!-- Generator: Adobe Illustrator 22.1.0, SVG Export Plug-In . SVG Version: 6.00 Build 0)  -->
<svg version="1.1" id="Capa_1" xmlns="http://www.w3.org/2000/svg" xmlns:xlink="http://www.w3.org/1999/xlink" x="0px" y="0px"
	 viewBox="0 0 512 512" style="enable-background:new 0 0 512 512;" xml:space="preserve">
<style type="text/css">
	.st0{fill:#FFFFFF;}
	.st1{fill:#E4EAF8;}
	.st2{fill:#C2C7D0;}
	.st3{fill:#AFB5BC;}
	.st4{fill:#474D54;}
</style>
<path class="st0" d="M492,99.1c-4.4,0-446,0-472,0c-6.9,0-12.5,5.6-12.5,12.5v372.7c0,6.9,5.6,12.5,12.5,12.5h472
	c6.9,0,12.5-5.6,12.5-12.5V111.6C504.5,104.7,498.9,99.1,492,99.1z"/>
<path class="st1" d="M27.5,484.3V111.6c0-6.9,5.6-12.5,12.5-12.5c-10.4,0-17.4,0-20,0c-6.9,0-12.5,5.6-12.5,12.5v372.7
	c0,6.9,5.6,12.5,12.5,12.5h20C33.1,496.9,27.5,491.3,27.5,484.3z"/>
<g>
	<path class="st2" d="M225.9,264.8c-3.6-3-8.6-4.5-14.1-3.7V293c0,0.3,0,0.7,0,1c5.6,0.8,10.5-0.7,14.1-3.7V264.8z"/>
	<path class="st2" d="M126.7,290.3c-3.7-3.1-6-7.7-6-12.7c0-4.9,2.4-9.2,6-12.2v-4.2c-9.8-1.3-20.1,6.2-20.1,16.4
		c0,10,8.8,18.2,20.1,16.4c0-0.3,0-0.7,0-1C126.7,293,126.7,290.3,126.7,290.3z"/>
</g>
<path class="st1" d="M145.5,328v22.8l24.3,30l24.3-30v-23.5C178.9,337.9,159.2,336.9,145.5,328z"/>
<path class="st2" d="M161,334.1c-5.8-1.1-11-3.2-15.6-6.1v22.8l15.6,19.2V334.1z"/>
<path class="st0" d="M258.3,374.2l-64.3-24.9l-24.3,30l-24.3-30l-64.2,24.9c0,0-23.8,9.8-23.8,36.9v24.6c0,7.9,6.5,14.4,14.4,14.4
	h196c7.9,0,14.4-6.5,14.4-14.4v-24.6C282.1,384,258.3,374.2,258.3,374.2z"/>
<path class="st0" d="M197.9,238.9c-1.3-1.4-3.5-1.7-5.1-0.6c-17.3,11.3-40.2,18.4-62.7,16.8c-2.3-0.2-4.2,1.6-4.2,4v34.7
	c0,22.3,17.5,42.7,44,42.7c23.6,0,42.7-19.2,42.7-42.7v-37.5C212.6,254.1,212.7,254.8,197.9,238.9z"/>
<path class="st1" d="M141.5,293.8v-38.6c-3.8,0.2-7.5,0.2-11.3-0.1c-2.3-0.2-4.2,1.6-4.2,4v34.7c0,26.8,24.1,46.7,51.1,42.1
	C156.9,332.5,141.5,314.9,141.5,293.8z"/>
<g>
	<path class="st3" d="M452.6,260.3H332.2c-4.1,0-7.5-3.4-7.5-7.5s3.4-7.5,7.5-7.5h120.4c4.1,0,7.5,3.4,7.5,7.5
		C460.1,256.9,456.8,260.3,452.6,260.3z"/>
	<path class="st3" d="M452.6,299.8H332.2c-4.1,0-7.5-3.4-7.5-7.5s3.4-7.5,7.5-7.5h120.4c4.1,0,7.5,3.4,7.5,7.5
		S456.8,299.8,452.6,299.8z"/>
	<path class="st3" d="M452.6,339.2H332.2c-4.1,0-7.5-3.4-7.5-7.5s3.4-7.5,7.5-7.5h120.4c4.1,0,7.5,3.4,7.5,7.5
		C460.1,335.9,456.8,339.2,452.6,339.2z"/>
	<path class="st3" d="M452.6,378.7H332.2c-4.1,0-7.5-3.4-7.5-7.5s3.4-7.5,7.5-7.5h120.4c4.1,0,7.5,3.4,7.5,7.5
		S456.8,378.7,452.6,378.7z"/>
	<path class="st3" d="M452.6,418.2H332.2c-4.1,0-7.5-3.4-7.5-7.5s3.4-7.5,7.5-7.5h120.4c4.1,0,7.5,3.4,7.5,7.5
		S456.8,418.2,452.6,418.2z"/>
</g>
<g>
	<path class="st4" d="M78.5,367.2c0,0-0.1,0-0.1,0.1c-1.2,0.5-28.4,12.1-28.4,43.8v24.6c0,12.1,9.8,21.9,21.9,21.9h196
		c12.1,0,21.9-9.8,21.9-21.9v-24.6c0-31.8-27.3-43.3-28.4-43.8c0,0-0.1,0-0.1-0.1l-59.5-23v-11.5c9.2-7.5,15.7-18.3,17.8-30.5
		c4.6-0.7,8.9-2.6,12.4-5.6c5.3-4.6,8.4-11.2,8.4-18.2c0-5.5-1.9-10.8-5.3-15v-18c0-36.2-29.5-65.7-65.7-65.7s-65.7,29.5-65.7,65.7
		v18.5c-3.4,4.2-5.3,9.2-5.3,14.6c0,7,3,13.7,8.4,18.2c3.6,3.1,7.8,5,12.4,5.7c2.1,12.7,9,23.7,18.9,31.2v10.8L78.5,367.2z
		 M146.5,442.6h-41.1v-22.2c0-4.1-3.4-7.5-7.5-7.5s-7.5,3.4-7.5,7.5v22.2H71.8c-3.8,0-6.9-3.1-6.9-6.9v-24.6
		c0-21.3,17.9-29.4,19.1-29.9l34.6-13.4l15.1,30.3c0,0,0,0,0,0c1.5,3,4.2,5.1,7.4,5.9c0.9,0.2,1.8,0.3,2.8,0.3
		c2.3,0,4.6-0.7,6.6-2.1l0.1-0.1l2.2,3.3L146.5,442.6z M169.8,367.4L153,346.6v-4.9c5.1,1.5,10.8,2.2,16.9,2.2c0.2,0,0.4,0,0.6,0
		c0.1,0,0.1,0,0.2,0c0.1,0,0.3,0,0.4,0c0.1,0,0.2,0,0.2,0c0.1,0,0.2,0,0.4,0c0.1,0,0.2,0,0.2,0c0.1,0,0.3,0,0.4,0c0.1,0,0.1,0,0.2,0
		c0.2,0,0.3,0,0.5,0c0.1,0,0.1,0,0.2,0c0.2,0,0.3,0,0.5,0c0.1,0,0.2,0,0.3,0c0.1,0,0.2,0,0.3,0c0.1,0,0.2,0,0.3,0c0.1,0,0.2,0,0.3,0
		c0.1,0,0.2,0,0.3,0c0.1,0,0.2,0,0.3,0c0.1,0,0.2,0,0.3,0c0.1,0,0.2,0,0.3,0c0.2,0,0.3,0,0.5-0.1c0.1,0,0.2,0,0.3,0
		c0.1,0,0.2,0,0.3,0c0.1,0,0.2,0,0.3,0c0.1,0,0.2,0,0.3,0c0.1,0,0.2,0,0.3,0c0.1,0,0.2,0,0.3-0.1c0.1,0,0.2,0,0.3,0
		c0.1,0,0.2,0,0.3-0.1c0.1,0,0.2,0,0.2,0c0.1,0,0.2,0,0.3-0.1c0.1,0,0.1,0,0.2,0c0.2,0,0.4-0.1,0.7-0.1c0.1,0,0.2,0,0.2,0
		c0.1,0,0.2,0,0.3-0.1c0.1,0,0.2,0,0.2-0.1c0.1,0,0.2,0,0.3-0.1c0.1,0,0.2,0,0.2-0.1c0.1,0,0.2-0.1,0.3-0.1c0.1,0,0.2,0,0.2-0.1
		c0.1,0,0.2-0.1,0.3-0.1c0.1,0,0.1,0,0.2,0c0.4-0.1,0.8-0.2,1.3-0.3c0,0,0.1,0,0.1,0c0.1,0,0.3-0.1,0.4-0.1c0.1,0,0.1,0,0.2,0
		c0.1,0,0.3-0.1,0.4-0.1c0,0,0.1,0,0.1,0c0.1,0,0.3-0.1,0.4-0.1c0,0,0.1,0,0.1,0c0.3-0.1,0.6-0.2,0.9-0.3v5.5L169.8,367.4z
		 M176.8,393.5l-1.9,2.9h-10.2l-1.9-2.9l7-5L176.8,393.5z M255.5,381.2c1,0.4,19.1,8.6,19.1,29.9v24.6c0,3.8-3.1,6.9-6.9,6.9h-18.6
		v-22.2c0-4.1-3.4-7.5-7.5-7.5c-4.1,0-7.5,3.4-7.5,7.5v22.2H193l-6.3-37.1l2.2-3.3l0.1,0.1c1.9,1.4,4.2,2.1,6.6,2.1
		c0.9,0,1.8-0.1,2.8-0.3c3.2-0.8,5.9-3,7.4-5.9c0,0,0,0,0,0l15.1-30.3L255.5,381.2z M206.9,362.3l-12.6,25.2l-2.9-2c0,0,0,0-0.1,0
		l-10.7-7.6l15.8-19.5L206.9,362.3z M220.1,270.2c0,0,0.1,0,0.1,0.1c0,0,0,0,0,0c0.1,0,0.2,0.1,0.2,0.1l0,0c0.6,0.4,1.3,0.8,1.8,1.3
		c0,0,0.1,0.1,0.1,0.1c1.8,1.7,2.8,4,2.8,6.5c0,2.6-1.1,5.1-3.1,6.9c-0.6,0.5-1.2,0.9-1.9,1.3V270.2z M118.4,286.5
		c-0.7-0.3-1.3-0.8-1.9-1.3c-2-1.7-3.1-4.2-3.1-6.9c0-2.8,1.6-4.8,2.7-6c0,0,0.1-0.1,0.1-0.1c0.6-0.6,1.3-1.1,2.1-1.5c0,0,0,0,0,0
		c0,0,0.1,0,0.1-0.1L118.4,286.5L118.4,286.5z M122.1,250.6c-0.2,0.1-0.3,0.3-0.4,0.4c0,0,0,0,0,0c-0.1,0.1-0.1,0.1-0.2,0.2
		c0,0,0,0-0.1,0.1c0,0.1-0.1,0.1-0.1,0.2c0,0,0,0.1-0.1,0.1c0,0.1-0.1,0.1-0.1,0.2c0,0,0,0.1-0.1,0.1c0,0.1-0.1,0.1-0.1,0.2
		c0,0,0,0.1-0.1,0.1c0,0-0.1,0.1-0.1,0.1c0,0,0,0.1-0.1,0.1c0,0-0.1,0.1-0.1,0.1c0,0,0,0.1-0.1,0.1c0,0.1-0.1,0.1-0.1,0.2
		c0,0,0,0.1-0.1,0.1c0,0.1-0.1,0.1-0.1,0.2c0,0,0,0.1-0.1,0.1c0,0.1-0.1,0.1-0.1,0.2c0,0,0,0.1-0.1,0.1c0,0.1-0.1,0.1-0.1,0.2
		c0,0,0,0.1,0,0.1c0,0.1-0.1,0.1-0.1,0.2c0,0,0,0.1,0,0.1c0,0.1-0.1,0.1-0.1,0.2c0,0,0,0,0,0.1c0,0.1-0.1,0.1-0.1,0.2c0,0,0,0,0,0.1
		c0,0.1-0.1,0.2-0.1,0.3c0,0,0,0,0,0c-0.2,0-0.5,0.1-0.7,0.1v-9.5c0-27.9,22.7-50.7,50.7-50.7s50.7,22.7,50.7,50.7v8.4
		c-0.6-2.9-2.6-5-9-11.9c-0.1-0.1-0.2-0.2-0.3-0.4c-1.5-1.6-3.4-3.6-5.6-6c-0.5-0.5-1-1.1-1.6-1.7l0,0c-0.1-0.1-0.1-0.1-0.2-0.2
		c-0.1-0.1-0.1-0.1-0.2-0.2c0,0,0,0,0,0c-0.1-0.1-0.2-0.2-0.3-0.3c-0.1-0.1-0.2-0.2-0.4-0.3c-0.2-0.1-0.3-0.3-0.5-0.4
		c-0.2-0.1-0.3-0.2-0.5-0.3c-0.1,0-0.1-0.1-0.2-0.1c-0.1-0.1-0.2-0.1-0.3-0.2c0,0,0,0,0,0c-0.1-0.1-0.2-0.1-0.3-0.2
		c-0.1-0.1-0.2-0.1-0.3-0.2c-0.1-0.1-0.2-0.1-0.3-0.2c0,0-0.1,0-0.1-0.1c-3.5-1.6-7.6-1.3-11,0.9c-17.4,11.3-38.5,17-58,15.6
		 M133.4,295c0-0.1,0-0.3,0-0.4l0-0.4c0-0.1,0-0.3,0-0.4v-31c15.5,0.5,31.6-2.7,46.5-9.1c0,0,0.1,0,0.1,0c0.1,0,0.1-0.1,0.2-0.1
		c0.2-0.1,0.4-0.2,0.6-0.3c0.1-0.1,0.2-0.1,0.4-0.2c0.1,0,0.1-0.1,0.2-0.1l0,0c4.5-2,8.8-4.3,13-6.9c0.1,0.1,0.3,0.3,0.4,0.4
		c1.9,2,3.5,3.7,4.9,5.2c2.5,2.6,4.4,4.7,5.5,5.9v36.2c0,0,0,0.1,0,0.1c0,0.1,0,0.2,0,0.3l0,0.4c0,0.1,0,0.3,0,0.4
		c-0.4,11.4-6.2,21.4-15,27.6c-0.1,0.1-0.2,0.1-0.3,0.2c-4.6,3.2-9.8,5.2-15.2,5.9c0,0-0.1,0-0.1,0c-0.1,0-0.2,0-0.3,0
		c0,0-0.1,0-0.1,0c-0.2,0-0.3,0-0.5,0.1c0,0-0.1,0-0.1,0c-0.1,0-0.1,0-0.2,0c-0.1,0-0.1,0-0.2,0c-0.1,0-0.1,0-0.2,0
		c-0.1,0-0.2,0-0.2,0c-0.1,0-0.1,0-0.2,0c-0.1,0-0.2,0-0.4,0c-0.1,0-0.1,0-0.2,0c-0.1,0-0.2,0-0.2,0c-0.1,0-0.1,0-0.2,0
		c-0.1,0-0.2,0-0.3,0c0,0-0.1,0-0.1,0c-0.1,0-0.3,0-0.4,0c0,0-0.1,0-0.1,0c-0.1,0-0.2,0-0.3,0c0,0-0.1,0-0.1,0c-0.1,0-0.3,0-0.4,0
		C147.6,329,134.1,311.9,133.4,295z M143.1,358.3l15.8,19.5l-10.7,7.6c0,0,0,0-0.1,0l-2.9,2l-12.6-25.2L143.1,358.3z"/>
	<path class="st4" d="M492,91.6h-97v-9.2c0-11-9-20-20-20h-72v-36c0-10.3-8.4-18.8-18.8-18.8h-10.6c-4.1,0-7.5,3.4-7.5,7.5
		s3.4,7.5,7.5,7.5h10.6c2.1,0,3.8,1.7,3.8,3.8v90.7h-63.8V26.4c0-2.1,1.7-3.8,3.8-3.8h10.6c4.1,0,7.5-3.4,7.5-7.5s-3.4-7.5-7.5-7.5
		h-10.6c-10.3,0-18.8,8.4-18.8,18.8v36h-72c-11,0-20,9-20,20v9.2H20c-11,0-20,9-20,20v372.7c0,11,9,20,20,20h472c11,0,20-9,20-20
		V328.1c0-4.1-3.4-7.5-7.5-7.5s-7.5,3.4-7.5,7.5v156.2c0,2.8-2.2,5-5,5H20c-2.8,0-5-2.2-5-5V111.6c0-2.8,2.2-5,5-5h189.1v10.5h-0.9
		c-4.1,0-7.5,3.4-7.5,7.5s3.4,7.5,7.5,7.5h95.7c4.1,0,7.5-3.4,7.5-7.5s-3.4-7.5-7.5-7.5h-0.9v-10.5H492c2.8,0,5,2.2,5,5v181.5
		c0,4.1,3.4,7.5,7.5,7.5s7.5-3.4,7.5-7.5V111.6C512,100.6,503,91.6,492,91.6z M209.1,91.6h-77v-9.2c0-2.8,2.2-5,5-5h72L209.1,91.6
		L209.1,91.6z M380,91.6h-77V77.4h72c2.8,0,5,2.2,5,5V91.6L380,91.6z"/>
</g>
</svg>
