<svg viewBox="0 -16 512 512" xmlns="http://www.w3.org/2000/svg"><path d="m437 390h-16v-195c0-8.285156-6.714844-15-15-15h-60c-8.285156 0-15 6.714844-15 15v195h-30v-135c0-8.285156-6.714844-15-15-15h-60c-8.285156 0-15 6.714844-15 15v135h-31v-105c0-8.285156-6.714844-15-15-15h-60c-8.285156 0-15 6.714844-15 15v105h-15c-8.285156 0-15 6.714844-15 15s6.714844 15 15 15h362c8.285156 0 15-6.714844 15-15s-6.714844-15-15-15zm-76-180h30v180h-30zm-120 60h30v120h-30zm-121 30h30v90h-30zm0 0"/><path d="m467 0h-422c-24.8125 0-45 20.1875-45 45v390c0 24.8125 20.1875 45 45 45h422c24.8125 0 45-20.1875 45-45v-390c0-24.8125-20.1875-45-45-45zm-422 30h422c8.269531 0 15 6.730469 15 15v75h-452v-75c0-8.269531 6.730469-15 15-15zm422 420h-422c-8.269531 0-15-6.730469-15-15v-285h452v285c0 8.269531-6.730469 15-15 15zm0 0"/><path d="m256 90h181c8.285156 0 15-6.714844 15-15s-6.714844-15-15-15h-181c-8.285156 0-15 6.714844-15 15s6.714844 15 15 15zm0 0"/><path d="m89.972656 75c0 8.285156-6.71875 15-15 15-8.285156 0-15-6.714844-15-15s6.714844-15 15-15c8.28125 0 15 6.714844 15 15zm0 0"/><path d="m149.972656 75c0 8.285156-6.71875 15-15 15-8.285156 0-15-6.714844-15-15s6.714844-15 15-15c8.28125 0 15 6.714844 15 15zm0 0"/><path d="m210.972656 75c0 8.285156-6.71875 15-15 15-8.285156 0-15-6.714844-15-15s6.714844-15 15-15c8.28125 0 15 6.714844 15 15zm0 0"/></svg>