<svg fill="#3f87f5" height="852pt" viewBox="-113 -26 852 852.49995" width="852pt" xmlns="http://www.w3.org/2000/svg"><path d="m219.535156-1.75c-36.761718.046875-66.558594 29.835938-66.605468 66.605469v26.640625h-13.316407c-22.074219 0-39.960937 17.886718-39.960937 39.957031v26.640625h-66.601563c-22.074219 0-39.960937 17.894531-39.960937 39.960938v559.453124c0 22.070313 17.886718 39.960938 39.960937 39.960938h372.972657c22.066406 0 39.953124-17.890625 39.953124-39.960938v-146.519531c0-7.363281-5.960937-13.324219-13.316406-13.324219-7.359375 0-13.320312 5.960938-13.320312 13.324219v146.519531c0 7.359376-5.96875 13.324219-13.316406 13.324219h-372.972657c-7.359375 0-13.320312-5.964843-13.320312-13.324219v-559.453124c0-7.355469 5.960937-13.320313 13.320312-13.320313h372.972657c7.347656 0 13.316406 5.964844 13.316406 13.320313v13.324218c0 7.355469 5.960937 13.316406 13.320312 13.316406 7.355469 0 13.316406-5.960937 13.316406-13.316406v-13.324218c0-22.066407-17.886718-39.960938-39.953124-39.960938h-66.605469v-26.640625c0-22.070313-17.890625-39.957031-39.960938-39.957031h-13.316406v-26.640625c-.046875-36.769531-29.847656-66.558594-66.605469-66.605469zm-39.96875 66.605469c0-22.070313 17.898438-39.964844 39.96875-39.964844 22.070313 0 39.960938 17.894531 39.960938 39.964844v26.640625h-79.929688zm133.210938 66.597656v26.640625h-186.488282v-26.640625c0-7.351563 5.960938-13.320313 13.324219-13.320313h159.84375c7.355469 0 13.320313 5.96875 13.320313 13.320313zm0 0"/><path d="m219.535156 557.703125h-159.84375c-7.355468 0-13.324218 5.960937-13.324218 13.324219 0 7.351562 5.96875 13.316406 13.324218 13.316406h159.84375c7.359375 0 13.320313-5.964844 13.320313-13.316406 0-7.363282-5.960938-13.324219-13.320313-13.324219zm0 0"/><path d="m299.457031 610.988281h-239.765625c-7.355468 0-13.324218 5.964844-13.324218 13.316407 0 7.359374 5.96875 13.320312 13.324218 13.320312h239.765625c7.355469 0 13.320313-5.960938 13.320313-13.320312 0-7.351563-5.964844-13.316407-13.320313-13.316407zm0 0"/><path d="m59.691406 717.546875c-7.355468 0-13.324218 5.96875-13.324218 13.320313 0 7.359374 5.96875 13.324218 13.324218 13.324218h199.804688c7.355468 0 13.316406-5.964844 13.316406-13.324218 0-7.351563-5.960938-13.320313-13.316406-13.320313zm0 0"/><path d="m392.699219 677.585938c0-7.355469-5.964844-13.316407-13.328125-13.316407h-319.679688c-7.355468 0-13.324218 5.960938-13.324218 13.316407 0 7.359374 5.96875 13.324218 13.324218 13.324218h319.679688c7.363281 0 13.328125-5.964844 13.328125-13.324218zm0 0"/><path d="m484.089844 523.695312c49.210937-56.917968 55.90625-139.15625 16.550781-203.292968-39.355469-64.140625-115.707031-95.414063-188.742187-77.320313-3.902344-18.480469-20.199219-31.699219-39.085938-31.703125h-106.5625c-22.070312 0-39.960938 17.890625-39.960938 39.957032v133.203124c0 22.074219 17.890626 39.960938 39.960938 39.960938h14c.683594 8.976562 2.074219 17.886719 4.15625 26.640625h-124.714844c-7.355468 0-13.324218 5.964844-13.324218 13.324219 0 7.351562 5.96875 13.316406 13.324218 13.316406h133.203125c3.914063 9.28125 8.640625 18.195312 14.121094 26.640625h-147.324219c-7.355468 0-13.324218 5.964844-13.324218 13.320313 0 7.359374 5.96875 13.320312 13.324218 13.320312h168.378906c63.410157 66.347656 167.667969 71.386719 237.179688 11.472656l131.15625 131.148438c5.226562 5.050781 13.535156 4.976562 18.667969-.160156 5.140625-5.136719 5.214843-13.449219.167969-18.675782zm-331.160156-139.15625v-133.203124c0-7.351563 5.964843-13.320313 13.320312-13.320313h106.5625c7.359375 0 13.328125 5.96875 13.328125 13.320313-2.9375 1.226562-5.734375 2.667968-8.574219 3.992187-1.109375.539063-2.257812 1.058594-3.371094 1.628906-2.710937 1.386719-5.375 2.851563-7.984374 4.386719-1.617188.914062-3.167969 1.902344-4.730469 2.878906-3.238281 2.003906-6.410157 4.117188-9.496094 6.332032-2.519531 1.800781-5.011719 3.609374-7.40625 5.546874-1.921875 1.527344-3.746094 3.15625-5.582031 4.765626-1.84375 1.617187-3.609375 3.199218-5.332032 4.867187-1.714843 1.664063-3.484374 3.339844-5.179687 5.074219-2.023437 2.085937-3.996094 4.273437-5.871094 6.457031-2.320312 2.664063-4.542969 5.394531-6.664062 8.195313-1.519531 1.957031-3.019531 3.921874-4.445313 5.953124-1.429687 2.019532-2.867187 4.144532-4.230468 6.257813-1.355469 2.117187-2.496094 3.996094-3.695313 6.085937-1.800781 3.070313-3.523437 6.179688-5.132813 9.328126-1.332031 2.667968-2.664062 5.320312-3.910156 8.121093-.976562 2.1875-1.855468 4.410157-2.734375 6.660157-.972656 2.5-1.894531 5.007812-2.753906 7.53125-.699219 2.046874-1.429687 4.101562-2.054687 6.195312-1.308594 4.339844-2.4375 8.734375-3.410157 13.195312-.335937 1.570313-.585937 3.167969-.878906 4.742188-.679687 3.675781-1.257813 7.378906-1.695313 11.109375-.171874 1.507813-.371093 3.015625-.503906 4.53125-.082031.863281-.230468 1.71875-.292968 2.585937h-13.960938c-7.316406 0-13.257812-5.902343-13.320312-13.21875zm199.804687 173.164063c-80.878906-.089844-146.425781-65.640625-146.515625-146.519531 0-4.519532.269531-8.980469.675781-13.324219.148438-1.582031.355469-3.125.5625-4.6875.339844-2.796875.753907-5.566406 1.257813-8.3125.351562-1.851563.695312-3.699219 1.113281-5.539063.53125-2.386718 1.167969-4.726562 1.824219-7.074218.539062-1.957032 1.023437-3.925782 1.648437-5.847656 1.144531-3.558594 2.433594-7.0625 3.847657-10.492188.957031-2.335938 2.050781-4.601562 3.117187-6.875.707031-1.492188 1.414063-3 2.15625-4.460938 1.171875-2.269531 2.398437-4.496093 3.691406-6.664062.785157-1.332031 1.625-2.660156 2.464844-3.996094 1.332031-2.195312 2.761719-4.386718 4.25-6.511718.757813-1.078126 1.582031-2.101563 2.371094-3.171876 3.109375-4.195312 6.441406-8.21875 9.988281-12.054687.816406-.875 1.585938-1.796875 2.425781-2.660156 1.824219-1.882813 3.746094-3.679688 5.675781-5.464844 1.101563-1.023437 2.21875-2.0625 3.367188-3.0625 2-1.746094 4-3.425781 6.140625-5.066406 1.0625-.835938 2.15625-1.621094 3.234375-2.421875 2.335938-1.722656 4.667969-3.410156 7.089844-4.996094l.535156-.316406c52.511719-33.882813 120.734375-30.707032 169.878906 7.898437 49.140625 38.609375 68.371094 104.144531 47.882813 163.1875-20.492188 59.035157-76.191407 98.570313-138.683594 98.433594zm0 0"/><path d="m397.148438 420.503906c20.574218-18.410156 27.660156-47.613281 17.804687-73.402344-9.855469-25.796874-34.605469-42.832031-62.21875-42.832031-27.609375 0-52.363281 17.035157-62.214844 42.832031-9.855469 25.789063-2.769531 54.992188 17.804688 73.402344-20.089844 9.703125-36.328125 25.890625-46.101563 45.941406-3.996094 7.941407-3.5625 17.386719 1.144532 24.921876 5.117187 8.21875 14.148437 13.167968 23.820312 13.054687h131.097656c9.683594.101563 18.710938-4.855469 23.8125-13.078125 4.714844-7.53125 5.148438-16.976562 1.148438-24.90625-9.765625-20.058594-26.003906-36.234375-46.097656-45.933594zm-84.371094-49.28125c0-22.074218 17.886718-39.964844 39.957031-39.964844 22.074219 0 39.964844 17.890626 39.964844 39.964844 0 22.0625-17.890625 39.960938-39.964844 39.960938-22.070313 0-39.957031-17.898438-39.957031-39.960938zm-26.734375 107.164063c12.003906-25.746094 38.316406-41.746094 66.691406-40.566407 28.015625-1.515624 54.066406 14.371094 65.550781 39.960938zm0 0"/></svg>